<svg width="166" height="165" viewBox="0 0 166 165" fill="none" xmlns="http://www.w3.org/2000/svg">
<path d="M118.723 37.9881C119.022 38.2679 119.491 38.2526 119.77 37.9538C120.05 37.655 120.035 37.1859 119.736 36.9061C119.437 36.6263 118.968 36.6416 118.688 36.9404C118.409 37.2392 118.424 37.7082 118.723 37.9881Z" fill="#8643DC"/>
<path d="M113.484 38.1597C113.783 38.4395 114.252 38.4242 114.532 38.1254C114.812 37.8266 114.797 37.3576 114.498 37.0777C114.199 36.7979 113.73 36.8132 113.45 37.112C113.17 37.4108 113.186 37.8798 113.484 38.1597Z" fill="#8643DC"/>
<path d="M108.111 38.2044C108.41 38.4842 108.879 38.4689 109.158 38.1701C109.438 37.8713 109.423 37.4023 109.124 37.1224C108.825 36.8426 108.356 36.8579 108.076 37.1567C107.797 37.4555 107.812 37.9246 108.111 38.2044Z" fill="#8643DC"/>
<path d="M102.872 38.376C103.171 38.6559 103.64 38.6405 103.92 38.3417C104.2 38.0429 104.185 37.5739 103.886 37.2941C103.587 37.0142 103.118 37.0296 102.838 37.3283C102.558 37.6271 102.574 38.0962 102.872 38.376Z" fill="#8643DC"/>
<path d="M97.372 38.5559C97.6708 38.8358 98.1399 38.8204 98.4197 38.5216C98.6995 38.2228 98.6842 37.7538 98.3854 37.474C98.0866 37.1941 97.6176 37.2095 97.3377 37.5083C97.0579 37.807 97.0733 38.2761 97.372 38.5559Z" fill="#8643DC"/>
<path d="M92.1337 38.7276C92.4325 39.0074 92.9015 38.992 93.1814 38.6933C93.4612 38.3945 93.4458 37.9254 93.1471 37.6456C92.8483 37.3658 92.3792 37.3811 92.0994 37.6799C91.8196 37.9787 91.8349 38.4477 92.1337 38.7276Z" fill="#8643DC"/>
<path d="M86.76 38.7722C87.0588 39.0521 87.5279 39.0367 87.8077 38.7379C88.0875 38.4392 88.0722 37.9701 87.7734 37.6903C87.4746 37.4104 87.0056 37.4258 86.7257 37.7246C86.4459 38.0234 86.4613 38.4924 86.76 38.7722Z" fill="#8643DC"/>
<path d="M81.5216 38.9439C81.8204 39.2237 82.2895 39.2083 82.5693 38.9096C82.8491 38.6108 82.8338 38.1417 82.535 37.8619C82.2362 37.5821 81.7672 37.5974 81.4873 37.8962C81.2075 38.195 81.2229 38.664 81.5216 38.9439Z" fill="#8643DC"/>
<path d="M76.1481 38.9888C76.4469 39.2686 76.9159 39.2533 77.1958 38.9545C77.4756 38.6557 77.4602 38.1867 77.1615 37.9068C76.8627 37.627 76.3936 37.6423 76.1138 37.9411C75.834 38.2399 75.8493 38.7089 76.1481 38.9888Z" fill="#8643DC"/>
<path d="M70.9097 39.1602C71.2085 39.44 71.6775 39.4246 71.9574 39.1259C72.2372 38.8271 72.2218 38.358 71.9231 38.0782C71.6243 37.7984 71.1552 37.8137 70.8754 38.1125C70.5956 38.4113 70.6109 38.8803 70.9097 39.1602Z" fill="#8643DC"/>
<path d="M65.5362 39.2051C65.8349 39.4849 66.304 39.4696 66.5839 39.1708C66.8637 38.8721 66.8483 38.403 66.5495 38.1231C66.2507 37.8433 65.7817 37.8587 65.5019 38.1574C65.222 38.4562 65.2374 38.9253 65.5362 39.2051Z" fill="#8643DC"/>
<path d="M60.2978 39.3765C60.5965 39.6563 61.0656 39.641 61.3455 39.3422C61.6253 39.0434 61.6099 38.5744 61.3111 38.2945C61.0123 38.0147 60.5433 38.03 60.2635 38.3288C59.9836 38.6276 59.999 39.0966 60.2978 39.3765Z" fill="#8643DC"/>
<path d="M54.9241 39.4214C55.2229 39.7013 55.6919 39.6859 55.9717 39.3871C56.2516 39.0884 56.2362 38.6193 55.9374 38.3395C55.6387 38.0596 55.1696 38.075 54.8897 38.3737C54.6099 38.6725 54.6253 39.1416 54.9241 39.4214Z" fill="#8643DC"/>
<path d="M49.6858 39.5928C49.9846 39.8727 50.4536 39.8573 50.7335 39.5585C51.0133 39.2597 50.9979 38.7907 50.6992 38.5109C50.4004 38.231 49.9313 38.2464 49.6515 38.5451C49.3716 38.8439 49.387 39.313 49.6858 39.5928Z" fill="#8643DC"/>
<path d="M44.3122 39.6377C44.6109 39.9175 45.08 39.9022 45.3598 39.6034C45.6397 39.3046 45.6243 38.8356 45.3255 38.5558C45.0267 38.2759 44.5577 38.2913 44.2779 38.5901C43.998 38.8888 44.0134 39.3579 44.3122 39.6377Z" fill="#8643DC"/>
<path d="M118.929 44.274C119.227 44.5538 119.696 44.5385 119.976 44.2397C120.256 43.9409 120.241 43.4719 119.942 43.192C119.643 42.9122 119.174 42.9275 118.894 43.2263C118.614 43.5251 118.63 43.9941 118.929 44.274Z" fill="#8643DC"/>
<path d="M113.69 44.4456C113.989 44.7254 114.458 44.7101 114.738 44.4113C115.018 44.1125 115.002 43.6435 114.703 43.3637C114.405 43.0838 113.936 43.0991 113.656 43.3979C113.376 43.6967 113.391 44.1658 113.69 44.4456Z" fill="#8643DC"/>
<path d="M108.19 44.6255C108.489 44.9053 108.958 44.89 109.237 44.5912C109.517 44.2924 109.502 43.8234 109.203 43.5435C108.904 43.2637 108.435 43.2791 108.155 43.5778C107.876 43.8766 107.891 44.3457 108.19 44.6255Z" fill="#8643DC"/>
<path d="M102.816 44.6704C103.115 44.9503 103.584 44.9349 103.864 44.6361C104.144 44.3373 104.128 43.8683 103.83 43.5885C103.531 43.3086 103.062 43.324 102.782 43.6228C102.502 43.9215 102.517 44.3906 102.816 44.6704Z" fill="#8643DC"/>
<path d="M97.5779 44.8421C97.8767 45.1219 98.3457 45.1065 98.6256 44.8078C98.9054 44.509 98.8901 44.0399 98.5913 43.7601C98.2925 43.4803 97.8234 43.4956 97.5436 43.7944C97.2638 44.0932 97.2791 44.5622 97.5779 44.8421Z" fill="#8643DC"/>
<path d="M92.2043 44.8867C92.5031 45.1666 92.9721 45.1512 93.252 44.8524C93.5318 44.5537 93.5165 44.0846 93.2177 43.8048C92.9189 43.5249 92.4499 43.5403 92.17 43.8391C91.8902 44.1379 91.9055 44.6069 92.2043 44.8867Z" fill="#8643DC"/>
<path d="M86.966 45.0584C87.2648 45.3382 87.7338 45.3228 88.0136 45.0241C88.2935 44.7253 88.2781 44.2562 87.9793 43.9764C87.6806 43.6966 87.2115 43.7119 86.9317 44.0107C86.6518 44.3095 86.6672 44.7785 86.966 45.0584Z" fill="#8643DC"/>
<path d="M81.5923 45.103C81.891 45.3829 82.3601 45.3676 82.64 45.0688C82.9198 44.77 82.9044 44.3009 82.6056 44.0211C82.3068 43.7412 81.8378 43.7566 81.558 44.0554C81.2781 44.3542 81.2935 44.8232 81.5923 45.103Z" fill="#8643DC"/>
<path d="M76.354 45.2747C76.6528 45.5545 77.1218 45.5392 77.4017 45.2404C77.6815 44.9416 77.6661 44.4725 77.3673 44.1927C77.0686 43.9129 76.5995 43.9282 76.3197 44.227C76.0398 44.5258 76.0552 44.9948 76.354 45.2747Z" fill="#8643DC"/>
<path d="M70.9803 45.3194C71.2791 45.5992 71.7481 45.5839 72.028 45.2851C72.3078 44.9863 72.2924 44.5173 71.9937 44.2374C71.6949 43.9576 71.2258 43.9729 70.946 44.2717C70.6661 44.5705 70.6815 45.0396 70.9803 45.3194Z" fill="#8643DC"/>
<path d="M65.7419 45.491C66.0407 45.7709 66.5097 45.7555 66.7896 45.4567C67.0694 45.1579 67.054 44.6889 66.7553 44.4091C66.4565 44.1292 65.9874 44.1445 65.7076 44.4433C65.4277 44.7421 65.4431 45.2112 65.7419 45.491Z" fill="#8643DC"/>
<path d="M60.3682 45.5357C60.667 45.8155 61.136 45.8001 61.4159 45.5014C61.6957 45.2026 61.6803 44.7335 61.3816 44.4537C61.0828 44.1739 60.6137 44.1892 60.3339 44.488C60.0541 44.7868 60.0694 45.2558 60.3682 45.5357Z" fill="#8643DC"/>
<path d="M55.1299 45.7073C55.4287 45.9871 55.8977 45.9718 56.1776 45.673C56.4574 45.3742 56.4421 44.9052 56.1433 44.6253C55.8445 44.3455 55.3755 44.3609 55.0956 44.6596C54.8158 44.9584 54.8311 45.4275 55.1299 45.7073Z" fill="#8643DC"/>
<path d="M49.7563 45.7522C50.0551 46.032 50.5241 46.0167 50.804 45.7179C51.0838 45.4191 51.0685 44.9501 50.7697 44.6703C50.4709 44.3904 50.0019 44.4058 49.722 44.7046C49.4422 45.0033 49.4575 45.4724 49.7563 45.7522Z" fill="#8643DC"/>
<path d="M44.5179 45.9236C44.8167 46.2034 45.2857 46.1881 45.5656 45.8893C45.8454 45.5905 45.8301 45.1215 45.5313 44.8416C45.2325 44.5618 44.7635 44.5772 44.4836 44.8759C44.2038 45.1747 44.2191 45.6438 44.5179 45.9236Z" fill="#8643DC"/>
<path d="M119.008 50.6953C119.307 50.9752 119.776 50.9598 120.055 50.661C120.335 50.3622 120.32 49.8932 120.021 49.6134C119.722 49.3335 119.253 49.3489 118.973 49.6477C118.694 49.9464 118.709 50.4155 119.008 50.6953Z" fill="#8643DC"/>
<path d="M113.634 50.7402C113.933 51.0201 114.402 51.0047 114.682 50.7059C114.962 50.4072 114.946 49.9381 114.648 49.6583C114.349 49.3785 113.88 49.3938 113.6 49.6926C113.32 49.9914 113.335 50.4604 113.634 50.7402Z" fill="#8643DC"/>
<path d="M108.396 50.9116C108.695 51.1915 109.164 51.1761 109.443 50.8773C109.723 50.5786 109.708 50.1095 109.409 49.8297C109.11 49.5498 108.641 49.5652 108.361 49.864C108.082 50.1628 108.097 50.6318 108.396 50.9116Z" fill="#8643DC"/>
<path d="M103.022 50.9566C103.321 51.2364 103.79 51.221 104.07 50.9223C104.35 50.6235 104.334 50.1544 104.035 49.8746C103.737 49.5948 103.268 49.6101 102.988 49.9089C102.708 50.2077 102.723 50.6767 103.022 50.9566Z" fill="#8643DC"/>
<path d="M97.7838 51.1279C98.0826 51.4078 98.5516 51.3924 98.8314 51.0936C99.1113 50.7949 99.0959 50.3258 98.7971 50.046C98.4984 49.7662 98.0293 49.7815 97.7495 50.0803C97.4697 50.3791 97.485 50.8481 97.7838 51.1279Z" fill="#8643DC"/>
<path d="M92.4101 51.1729C92.7089 51.4527 93.178 51.4374 93.4578 51.1386C93.7377 50.8398 93.7223 50.3707 93.4235 50.0909C93.1247 49.8111 92.6557 49.8264 92.3758 50.1252C92.096 50.424 92.1113 50.893 92.4101 51.1729Z" fill="#8643DC"/>
<path d="M87.1718 51.3443C87.4706 51.6241 87.9397 51.6088 88.2195 51.31C88.4993 51.0112 88.4839 50.5421 88.1851 50.2623C87.8864 49.9825 87.4173 49.9978 87.1375 50.2966C86.8577 50.5954 86.873 51.0644 87.1718 51.3443Z" fill="#8643DC"/>
<path d="M81.7983 51.3892C82.0971 51.669 82.5661 51.6537 82.846 51.3549C83.1258 51.0561 83.1104 50.5871 82.8117 50.3073C82.5129 50.0274 82.0438 50.0427 81.764 50.3415C81.4841 50.6403 81.4995 51.1094 81.7983 51.3892Z" fill="#8643DC"/>
<path d="M76.4247 51.4341C76.7235 51.7139 77.1925 51.6986 77.4724 51.3998C77.7522 51.101 77.7369 50.632 77.4381 50.3521C77.1393 50.0723 76.6703 50.0877 76.3904 50.3864C76.1106 50.6852 76.1259 51.1543 76.4247 51.4341Z" fill="#8643DC"/>
<path d="M71.1863 51.6057C71.4851 51.8856 71.9541 51.8702 72.234 51.5714C72.5138 51.2726 72.4984 50.8036 72.1997 50.5238C71.9009 50.2439 71.4318 50.2593 71.152 50.5581C70.8722 50.8568 70.8875 51.3259 71.1863 51.6057Z" fill="#8643DC"/>
<path d="M65.8126 51.6504C66.1114 51.9302 66.5804 51.9149 66.8603 51.6161C67.1401 51.3173 67.1247 50.8483 66.826 50.5684C66.5272 50.2886 66.0581 50.304 65.7783 50.6027C65.4985 50.9015 65.5138 51.3706 65.8126 51.6504Z" fill="#8643DC"/>
<path d="M60.5742 51.8218C60.873 52.1016 61.342 52.0863 61.6218 51.7875C61.9017 51.4887 61.8863 51.0197 61.5875 50.7398C61.2888 50.46 60.8197 50.4754 60.5399 50.7741C60.2601 51.0729 60.2754 51.542 60.5742 51.8218Z" fill="#8643DC"/>
<path d="M55.2006 51.8667C55.4994 52.1465 55.9684 52.1312 56.2483 51.8324C56.5281 51.5336 56.5127 51.0646 56.214 50.7848C55.9152 50.5049 55.4461 50.5203 55.1663 50.8191C54.8865 51.1178 54.9018 51.5869 55.2006 51.8667Z" fill="#8643DC"/>
<path d="M49.9622 52.0381C50.261 52.3179 50.73 52.3026 51.0098 52.0038C51.2897 51.705 51.2743 51.236 50.9755 50.9561C50.6768 50.6763 50.2077 50.6917 49.9279 50.9904C49.6481 51.2892 49.6634 51.7583 49.9622 52.0381Z" fill="#8643DC"/>
<path d="M44.5886 52.083C44.8874 52.3629 45.3565 52.3475 45.6363 52.0488C45.9161 51.75 45.9007 51.2809 45.602 51.0011C45.3032 50.7212 44.8341 50.7366 44.5543 51.0354C44.2745 51.3341 44.2898 51.8032 44.5886 52.083Z" fill="#8643DC"/>
<path d="M119.078 56.8548C119.377 57.1346 119.846 57.1192 120.126 56.8205C120.406 56.5217 120.39 56.0526 120.092 55.7728C119.793 55.493 119.324 55.5083 119.044 55.8071C118.764 56.1059 118.779 56.575 119.078 56.8548Z" fill="#8643DC"/>
<path d="M113.84 57.0264C114.139 57.3063 114.608 57.2909 114.888 56.9921C115.167 56.6933 115.152 56.2243 114.853 55.9444C114.555 55.6646 114.085 55.6799 113.806 55.9787C113.526 56.2775 113.541 56.7466 113.84 57.0264Z" fill="#8643DC"/>
<path d="M108.466 57.0713C108.765 57.3512 109.234 57.3358 109.514 57.037C109.794 56.7383 109.779 56.2692 109.48 55.9893C109.181 55.7095 108.712 55.7249 108.432 56.0236C108.152 56.3224 108.168 56.7915 108.466 57.0713Z" fill="#8643DC"/>
<path d="M103.228 57.2427C103.527 57.5226 103.996 57.5072 104.276 57.2084C104.556 56.9096 104.54 56.4406 104.241 56.1607C103.943 55.8809 103.474 55.8963 103.194 56.195C102.914 56.4938 102.929 56.9629 103.228 57.2427Z" fill="#8643DC"/>
<path d="M97.8543 57.2874C98.1531 57.5673 98.6221 57.5519 98.902 57.2531C99.1818 56.9543 99.1665 56.4853 98.8677 56.2054C98.5689 55.9256 98.0998 55.9409 97.82 56.2397C97.5401 56.5385 97.5555 57.0076 97.8543 57.2874Z" fill="#8643DC"/>
<path d="M92.616 57.4591C92.9148 57.7389 93.3839 57.7235 93.6637 57.4247C93.9435 57.126 93.9282 56.6569 93.6294 56.3771C93.3306 56.0972 92.8615 56.1126 92.5817 56.4113C92.3019 56.7101 92.3172 57.1792 92.616 57.4591Z" fill="#8643DC"/>
<path d="M87.2423 57.504C87.5411 57.7838 88.0102 57.7684 88.29 57.4696C88.5698 57.1708 88.5545 56.7018 88.2557 56.422C87.9569 56.1421 87.4879 56.1575 87.208 56.4563C86.9282 56.755 86.9435 57.2241 87.2423 57.504Z" fill="#8643DC"/>
<path d="M82.004 57.6753C82.3027 57.9552 82.7718 57.9398 83.0517 57.641C83.3315 57.3422 83.3161 56.8732 83.0174 56.5933C82.7186 56.3135 82.2495 56.3289 81.9697 56.6276C81.6899 56.9264 81.7052 57.3955 82.004 57.6753Z" fill="#8643DC"/>
<path d="M76.6302 57.72C76.929 57.9999 77.3981 57.9845 77.6779 57.6857C77.9578 57.3869 77.9424 56.9179 77.6436 56.638C77.3449 56.3582 76.8758 56.3735 76.596 56.6723C76.3161 56.9711 76.3315 57.4402 76.6302 57.72Z" fill="#8643DC"/>
<path d="M71.392 57.8917C71.6907 58.1715 72.1598 58.1561 72.4397 57.8573C72.7195 57.5585 72.7041 57.0895 72.4054 56.8097C72.1066 56.5298 71.6375 56.5452 71.3577 56.844C71.0779 57.1427 71.0932 57.6118 71.392 57.8917Z" fill="#8643DC"/>
<path d="M66.0183 57.9366C66.3171 58.2164 66.7862 58.201 67.066 57.9022C67.3458 57.6035 67.3305 57.1344 67.0317 56.8546C66.7329 56.5747 66.2639 56.5901 65.984 56.8889C65.7042 57.1877 65.7195 57.6567 66.0183 57.9366Z" fill="#8643DC"/>
<path d="M60.7799 58.108C61.0787 58.3878 61.5478 58.3724 61.8276 58.0736C62.1074 57.7748 62.0921 57.3058 61.7933 57.026C61.4945 56.7461 61.0255 56.7615 60.7456 57.0603C60.4658 57.359 60.4811 57.8281 60.7799 58.108Z" fill="#8643DC"/>
<path d="M55.4064 58.1529C55.7051 58.4327 56.1743 58.4174 56.4541 58.1186C56.7339 57.8198 56.7185 57.3507 56.4198 57.0709C56.121 56.7911 55.6519 56.8064 55.3721 57.1052C55.0923 57.404 55.1076 57.8731 55.4064 58.1529Z" fill="#8643DC"/>
<path d="M50.168 58.3245C50.4667 58.6044 50.9359 58.589 51.2157 58.2902C51.4955 57.9914 51.4801 57.5224 51.1814 57.2425C50.8826 56.9627 50.4135 56.978 50.1337 57.2768C49.8539 57.5756 49.8692 58.0447 50.168 58.3245Z" fill="#8643DC"/>
<path d="M44.6678 58.5044C44.9666 58.7843 45.4356 58.7689 45.7155 58.4701C45.9953 58.1714 45.9799 57.7023 45.6812 57.4225C45.3824 57.1427 44.9133 57.158 44.6335 57.4568C44.3536 57.7555 44.369 58.2246 44.6678 58.5044Z" fill="#8643DC"/>
<path d="M119.284 63.1409C119.583 63.4208 120.052 63.4054 120.332 63.1067C120.612 62.8079 120.596 62.3388 120.297 62.0589C119.999 61.7791 119.53 61.7945 119.25 62.0933C118.97 62.392 118.985 62.8611 119.284 63.1409Z" fill="#8643DC"/>
<path d="M113.91 63.1859C114.209 63.4657 114.678 63.4504 114.958 63.1516C115.238 62.8528 115.223 62.3837 114.924 62.1039C114.625 61.8241 114.156 61.8394 113.876 62.1382C113.596 62.437 113.612 62.906 113.91 63.1859Z" fill="#8643DC"/>
<path d="M108.672 63.3573C108.971 63.6371 109.44 63.6218 109.72 63.323C110 63.0242 109.984 62.5551 109.685 62.2753C109.387 61.9954 108.918 62.0108 108.638 62.3096C108.358 62.6084 108.373 63.0774 108.672 63.3573Z" fill="#8643DC"/>
<path d="M103.298 63.4022C103.597 63.682 104.066 63.6666 104.346 63.3679C104.626 63.0691 104.611 62.6 104.312 62.3202C104.013 62.0403 103.544 62.0557 103.264 62.3545C102.984 62.6533 103 63.1223 103.298 63.4022Z" fill="#8643DC"/>
<path d="M98.06 63.5735C98.3588 63.8534 98.8278 63.838 99.1077 63.5392C99.3875 63.2405 99.3722 62.7714 99.0734 62.4915C98.7746 62.2117 98.3055 62.2271 98.0257 62.5259C97.7459 62.8247 97.7612 63.2937 98.06 63.5735Z" fill="#8643DC"/>
<path d="M92.6864 63.6185C92.9852 63.8983 93.4542 63.8829 93.7341 63.5842C94.0139 63.2854 93.9986 62.8163 93.6998 62.5365C93.401 62.2566 92.9319 62.272 92.6521 62.5708C92.3723 62.8696 92.3876 63.3386 92.6864 63.6185Z" fill="#8643DC"/>
<path d="M87.448 63.7899C87.7468 64.0697 88.2158 64.0543 88.4957 63.7555C88.7755 63.4568 88.7602 62.9877 88.4614 62.7079C88.1626 62.428 87.6935 62.4434 87.4137 62.7422C87.1339 63.041 87.1492 63.51 87.448 63.7899Z" fill="#8643DC"/>
<path d="M82.0745 63.8348C82.3732 64.1146 82.8423 64.0993 83.1221 63.8005C83.402 63.5017 83.3866 63.0326 83.0879 62.7528C82.7891 62.4729 82.32 62.4883 82.0402 62.7871C81.7603 63.0859 81.7757 63.5549 82.0745 63.8348Z" fill="#8643DC"/>
<path d="M76.8361 64.0062C77.1348 64.286 77.6039 64.2706 77.8837 63.9719C78.1635 63.6731 78.1482 63.204 77.8495 62.9242C77.5507 62.6443 77.0816 62.6597 76.8018 62.9585C76.5219 63.2573 76.5373 63.7263 76.8361 64.0062Z" fill="#8643DC"/>
<path d="M71.4624 64.0511C71.7612 64.3309 72.2303 64.3156 72.5101 64.0168C72.7899 63.718 72.7746 63.2489 72.4758 62.9691C72.177 62.6892 71.7079 62.7046 71.4281 63.0034C71.1483 63.3022 71.1636 63.7712 71.4624 64.0511Z" fill="#8643DC"/>
<path d="M66.2241 64.2227C66.5229 64.5025 66.992 64.4872 67.2718 64.1884C67.5517 63.8897 67.5363 63.4205 67.2375 63.1407C66.9387 62.8609 66.4697 62.8763 66.1898 63.1751C65.91 63.4738 65.9253 63.9429 66.2241 64.2227Z" fill="#8643DC"/>
<path d="M60.8504 64.2674C61.1492 64.5473 61.6183 64.5319 61.8981 64.2331C62.1779 63.9343 62.1626 63.4653 61.8638 63.1854C61.5651 62.9056 61.0959 62.921 60.8161 63.2197C60.5363 63.5185 60.5517 63.9876 60.8504 64.2674Z" fill="#8643DC"/>
<path d="M55.4854 64.5741C55.7842 64.8539 56.2532 64.8385 56.5331 64.5397C56.8129 64.2409 56.7976 63.7719 56.4988 63.4921C56.2 63.2122 55.7309 63.2276 55.4511 63.5263C55.1712 63.8251 55.1866 64.2942 55.4854 64.5741Z" fill="#8643DC"/>
<path d="M50.1118 64.619C50.4105 64.8988 50.8796 64.8834 51.1594 64.5846C51.4393 64.2858 51.4239 63.8168 51.1251 63.537C50.8264 63.2571 50.3573 63.2725 50.0775 63.5713C49.7977 63.87 49.813 64.3391 50.1118 64.619Z" fill="#8643DC"/>
<path d="M44.8734 64.7906C45.1722 65.0704 45.6413 65.055 45.9211 64.7562C46.2009 64.4575 46.1856 63.9884 45.8868 63.7086C45.588 63.4287 45.119 63.4441 44.8391 63.7429C44.5593 64.0417 44.5746 64.5107 44.8734 64.7906Z" fill="#8643DC"/>
<path d="M119.49 69.4271C119.789 69.7069 120.258 69.6915 120.537 69.3928C120.817 69.094 120.802 68.6249 120.503 68.3451C120.204 68.0653 119.735 68.0806 119.455 68.3794C119.176 68.6781 119.191 69.1472 119.49 69.4271Z" fill="#8643DC"/>
<path d="M114.116 69.4717C114.415 69.7515 114.884 69.7362 115.164 69.4374C115.444 69.1386 115.428 68.6696 115.13 68.3897C114.831 68.1099 114.362 68.1253 114.082 68.424C113.802 68.7228 113.817 69.1919 114.116 69.4717Z" fill="#8643DC"/>
<path d="M108.878 69.6433C109.177 69.9232 109.646 69.9078 109.925 69.609C110.205 69.3102 110.19 68.8412 109.891 68.5614C109.592 68.2815 109.123 68.2969 108.843 68.5957C108.564 68.8944 108.579 69.3635 108.878 69.6433Z" fill="#8643DC"/>
<path d="M103.504 69.688C103.803 69.9678 104.272 69.9525 104.552 69.6537C104.832 69.3549 104.816 68.8859 104.518 68.606C104.219 68.3262 103.75 68.3416 103.47 68.6403C103.19 68.9391 103.205 69.4082 103.504 69.688Z" fill="#8643DC"/>
<path d="M98.1305 69.7329C98.4293 70.0128 98.8983 69.9974 99.1782 69.6986C99.458 69.3998 99.4427 68.9308 99.1439 68.651C98.8451 68.3711 98.3761 68.3865 98.0962 68.6853C97.8164 68.984 97.8317 69.4531 98.1305 69.7329Z" fill="#8643DC"/>
<path d="M92.8922 69.9046C93.191 70.1844 93.6601 70.169 93.9399 69.8703C94.2197 69.5715 94.2044 69.1024 93.9056 68.8226C93.6068 68.5428 93.1378 68.5581 92.8579 68.8569C92.5781 69.1557 92.5935 69.6247 92.8922 69.9046Z" fill="#8643DC"/>
<path d="M87.5186 69.9492C87.8174 70.2291 88.2865 70.2138 88.5663 69.915C88.8461 69.6162 88.8307 69.1471 88.5319 68.8673C88.2332 68.5874 87.7641 68.6028 87.4843 68.9016C87.2045 69.2004 87.2198 69.6694 87.5186 69.9492Z" fill="#8643DC"/>
<path d="M82.2802 70.1209C82.579 70.4007 83.0481 70.3854 83.3279 70.0866C83.6078 69.7878 83.5924 69.3187 83.2936 69.0389C82.9948 68.7591 82.5258 68.7744 82.2459 69.0732C81.9661 69.372 81.9815 69.841 82.2802 70.1209Z" fill="#8643DC"/>
<path d="M76.9066 70.1656C77.2053 70.4454 77.6744 70.4301 77.9542 70.1313C78.2341 69.8325 78.2187 69.3635 77.9199 69.0836C77.6211 68.8038 77.1521 68.8191 76.8722 69.1179C76.5924 69.4167 76.6078 69.8857 76.9066 70.1656Z" fill="#8643DC"/>
<path d="M71.6683 70.3372C71.9671 70.617 72.4361 70.6017 72.7159 70.3029C72.9958 70.0041 72.9804 69.5351 72.6816 69.2553C72.3829 68.9754 71.9138 68.9907 71.6339 69.2895C71.3541 69.5883 71.3695 70.0574 71.6683 70.3372Z" fill="#8643DC"/>
<path d="M66.1679 70.5171C66.4667 70.797 66.9357 70.7816 67.2156 70.4828C67.4954 70.1841 67.4801 69.715 67.1813 69.4351C66.8825 69.1553 66.4134 69.1707 66.1336 69.4695C65.8538 69.7683 65.8691 70.2373 66.1679 70.5171Z" fill="#8643DC"/>
<path d="M60.9296 70.6888C61.2283 70.9686 61.6974 70.9533 61.9772 70.6545C62.2571 70.3557 62.2417 69.8866 61.943 69.6068C61.6442 69.3269 61.1751 69.3423 60.8953 69.6411C60.6154 69.9399 60.6308 70.4089 60.9296 70.6888Z" fill="#8643DC"/>
<path d="M55.5559 70.7335C55.8547 71.0133 56.3237 70.9979 56.6036 70.6992C56.8834 70.4004 56.8681 69.9313 56.5693 69.6515C56.2705 69.3716 55.8014 69.387 55.5216 69.6858C55.2418 69.9846 55.2571 70.4536 55.5559 70.7335Z" fill="#8643DC"/>
<path d="M50.3175 70.9051C50.6163 71.1849 51.0853 71.1696 51.3652 70.8708C51.645 70.572 51.6297 70.1029 51.3309 69.8231C51.0321 69.5432 50.563 69.5586 50.2832 69.8574C50.0034 70.1562 50.0187 70.6252 50.3175 70.9051Z" fill="#8643DC"/>
<path d="M44.944 70.95C45.2427 71.2298 45.7118 71.2145 45.9916 70.9157C46.2715 70.6169 46.2561 70.1478 45.9574 69.868C45.6586 69.5882 45.1895 69.6036 44.9097 69.9023C44.6298 70.2011 44.6452 70.6702 44.944 70.95Z" fill="#8643DC"/>
<path d="M119.56 75.5862C119.859 75.866 120.328 75.8507 120.608 75.5519C120.888 75.2531 120.873 74.7841 120.574 74.5042C120.275 74.2244 119.806 74.2398 119.526 74.5385C119.246 74.8373 119.262 75.3064 119.56 75.5862Z" fill="#8643DC"/>
<path d="M114.322 75.7578C114.621 76.0377 115.09 76.0223 115.37 75.7235C115.65 75.4247 115.634 74.9557 115.335 74.6759C115.037 74.396 114.568 74.4114 114.288 74.7102C114.008 75.0089 114.023 75.478 114.322 75.7578Z" fill="#8643DC"/>
<path d="M108.948 75.8025C109.247 76.0823 109.716 76.067 109.996 75.7682C110.276 75.4694 110.261 75.0004 109.962 74.7205C109.663 74.4407 109.194 74.4561 108.914 74.7548C108.634 75.0536 108.65 75.5227 108.948 75.8025Z" fill="#8643DC"/>
<path d="M103.71 75.9741C104.009 76.254 104.478 76.2386 104.758 75.9398C105.037 75.6411 105.022 75.172 104.723 74.8922C104.425 74.6123 103.956 74.6277 103.676 74.9265C103.396 75.2253 103.411 75.6943 103.71 75.9741Z" fill="#8643DC"/>
<path d="M98.3365 76.0188C98.6352 76.2986 99.1043 76.2833 99.3842 75.9846C99.664 75.6858 99.6486 75.2167 99.3498 74.9369C99.051 74.657 98.582 74.6724 98.3022 74.9712C98.0223 75.2699 98.0377 75.739 98.3365 76.0188Z" fill="#8643DC"/>
<path d="M93.0981 76.1904C93.3968 76.4703 93.8659 76.455 94.1458 76.1562C94.4256 75.8574 94.4102 75.3883 94.1114 75.1085C93.8126 74.8287 93.3436 74.844 93.0638 75.1428C92.7839 75.4416 92.7993 75.9106 93.0981 76.1904Z" fill="#8643DC"/>
<path d="M87.7246 76.2354C88.0233 76.5152 88.4924 76.4999 88.7722 76.2011C89.0521 75.9023 89.0367 75.4333 88.7379 75.1534C88.4391 74.8736 87.9701 74.8889 87.6902 75.1877C87.4104 75.4865 87.4258 75.9556 87.7246 76.2354Z" fill="#8643DC"/>
<path d="M82.4862 76.4068C82.7849 76.6866 83.254 76.6713 83.5338 76.3725C83.8137 76.0737 83.7983 75.6047 83.4995 75.3248C83.2007 75.045 82.7317 75.0603 82.4518 75.3591C82.172 75.6579 82.1874 76.127 82.4862 76.4068Z" fill="#8643DC"/>
<path d="M77.1125 76.4517C77.4113 76.7315 77.8803 76.7162 78.1602 76.4174C78.44 76.1186 78.4247 75.6496 78.1259 75.3697C77.8271 75.0899 77.3581 75.1052 77.0782 75.404C76.7984 75.7028 76.8137 76.1718 77.1125 76.4517Z" fill="#8643DC"/>
<path d="M71.6122 76.6316C71.911 76.9114 72.38 76.8961 72.6599 76.5973C72.9397 76.2985 72.9244 75.8295 72.6256 75.5496C72.3268 75.2698 71.8578 75.2852 71.5779 75.5839C71.2981 75.8827 71.3134 76.3518 71.6122 76.6316Z" fill="#8643DC"/>
<path d="M66.3738 76.8032C66.6726 77.0831 67.1416 77.0677 67.4215 76.7689C67.7013 76.4702 67.6859 76.0011 67.3872 75.7213C67.0884 75.4414 66.6193 75.4568 66.3395 75.7556C66.0597 76.0544 66.075 76.5234 66.3738 76.8032Z" fill="#8643DC"/>
<path d="M61.0001 76.8479C61.2989 77.1277 61.7679 77.1124 62.0478 76.8136C62.3276 76.5148 62.3122 76.0458 62.0135 75.766C61.7147 75.4861 61.2456 75.5015 60.9658 75.8003C60.686 76.099 60.7013 76.5681 61.0001 76.8479Z" fill="#8643DC"/>
<path d="M55.7618 77.0195C56.0605 77.2994 56.5296 77.284 56.8094 76.9852C57.0892 76.6865 57.0739 76.2174 56.7751 75.9376C56.4763 75.6578 56.0073 75.6731 55.7275 75.9719C55.4476 76.2707 55.463 76.7397 55.7618 77.0195Z" fill="#8643DC"/>
<path d="M50.3882 77.0642C50.687 77.3441 51.1561 77.3287 51.4359 77.03C51.7158 76.7312 51.7004 76.2621 51.4016 75.9823C51.1028 75.7024 50.6338 75.7178 50.3539 76.0166C50.0741 76.3153 50.0894 76.7844 50.3882 77.0642Z" fill="#8643DC"/>
<path d="M45.1498 77.2359C45.4486 77.5157 45.9177 77.5004 46.1975 77.2016C46.4773 76.9028 46.462 76.4337 46.1632 76.1539C45.8644 75.8741 45.3953 75.8894 45.1155 76.1882C44.8357 76.487 44.851 76.956 45.1498 77.2359Z" fill="#8643DC"/>
<path d="M119.766 81.8723C120.065 82.1522 120.534 82.1368 120.814 81.838C121.094 81.5392 121.078 81.0702 120.78 80.7904C120.481 80.5105 120.012 80.5259 119.732 80.8247C119.452 81.1234 119.467 81.5925 119.766 81.8723Z" fill="#8643DC"/>
<path d="M114.393 81.9173C114.691 82.1971 115.161 82.1818 115.44 81.883C115.72 81.5842 115.705 81.1151 115.406 80.8353C115.107 80.5555 114.638 80.5708 114.358 80.8696C114.079 81.1684 114.094 81.6374 114.393 81.9173Z" fill="#8643DC"/>
<path d="M109.154 82.0886C109.453 82.3685 109.922 82.3532 110.202 82.0544C110.482 81.7556 110.466 81.2865 110.168 81.0067C109.869 80.7268 109.4 80.7422 109.12 81.041C108.84 81.3398 108.855 81.8088 109.154 82.0886Z" fill="#8643DC"/>
<path d="M103.781 82.1336C104.079 82.4134 104.548 82.3981 104.828 82.0993C105.108 81.8005 105.093 81.3315 104.794 81.0516C104.495 80.7718 104.026 80.7871 103.746 81.0859C103.466 81.3847 103.482 81.8538 103.781 82.1336Z" fill="#8643DC"/>
<path d="M98.5423 82.305C98.841 82.5848 99.3101 82.5695 99.5899 82.2707C99.8697 81.9719 99.8544 81.5029 99.5556 81.223C99.2568 80.9432 98.7877 80.9585 98.5079 81.2573C98.2281 81.5561 98.2435 82.0251 98.5423 82.305Z" fill="#8643DC"/>
<path d="M93.1686 82.3499C93.4674 82.6297 93.9364 82.6143 94.2163 82.3156C94.4961 82.0168 94.4807 81.5477 94.182 81.2679C93.8832 80.9881 93.4141 81.0034 93.1343 81.3022C92.8545 81.601 92.8698 82.07 93.1686 82.3499Z" fill="#8643DC"/>
<path d="M87.9303 82.5215C88.229 82.8013 88.6981 82.786 88.9779 82.4872C89.2578 82.1884 89.2424 81.7194 88.9436 81.4395C88.6448 81.1597 88.1758 81.1751 87.896 81.4738C87.6161 81.7726 87.6315 82.2417 87.9303 82.5215Z" fill="#8643DC"/>
<path d="M82.4298 82.7014C82.7286 82.9813 83.1977 82.9659 83.4775 82.6671C83.7573 82.3684 83.742 81.8993 83.4432 81.6195C83.1444 81.3396 82.6754 81.355 82.3955 81.6538C82.1157 81.9526 82.1311 82.4216 82.4298 82.7014Z" fill="#8643DC"/>
<path d="M77.1916 82.8731C77.4903 83.1529 77.9594 83.1375 78.2392 82.8388C78.5191 82.54 78.5037 82.0709 78.2049 81.7911C77.9061 81.5113 77.4371 81.5266 77.1573 81.8254C76.8774 82.1242 76.8928 82.5932 77.1916 82.8731Z" fill="#8643DC"/>
<path d="M71.818 82.9177C72.1167 83.1976 72.5858 83.1822 72.8656 82.8834C73.1455 82.5847 73.1301 82.1156 72.8313 81.8358C72.5325 81.5559 72.0635 81.5713 71.7837 81.8701C71.5038 82.1689 71.5192 82.6379 71.818 82.9177Z" fill="#8643DC"/>
<path d="M66.5796 83.0894C66.8783 83.3692 67.3474 83.3538 67.6272 83.0551C67.9071 82.7563 67.8917 82.2872 67.5929 82.0074C67.2941 81.7276 66.8251 81.7429 66.5453 82.0417C66.2654 82.3405 66.2808 82.8095 66.5796 83.0894Z" fill="#8643DC"/>
<path d="M61.206 83.1343C61.5048 83.4141 61.9739 83.3988 62.2537 83.1C62.5336 82.8013 62.5182 82.3322 62.2194 82.0523C61.9206 81.7725 61.4516 81.7879 61.1717 82.0866C60.8919 82.3854 60.9072 82.8545 61.206 83.1343Z" fill="#8643DC"/>
<path d="M55.9676 83.3057C56.2664 83.5855 56.7355 83.5702 57.0153 83.2714C57.2952 82.9726 57.2798 82.5036 56.981 82.2237C56.6822 81.9439 56.2132 81.9592 55.9333 82.258C55.6535 82.5568 55.6688 83.0258 55.9676 83.3057Z" fill="#8643DC"/>
<path d="M50.5941 83.3506C50.8928 83.6305 51.3619 83.6151 51.6417 83.3163C51.9216 83.0176 51.9062 82.5485 51.6074 82.2687C51.3086 81.9888 50.8396 82.0042 50.5597 82.3029C50.2799 82.6017 50.2953 83.0708 50.5941 83.3506Z" fill="#8643DC"/>
<path d="M45.3557 83.522C45.6544 83.8019 46.1235 83.7865 46.4033 83.4877C46.6832 83.1889 46.6678 82.7199 46.369 82.4401C46.0702 82.1602 45.6012 82.1755 45.3213 82.4743C45.0415 82.7731 45.0569 83.2422 45.3557 83.522Z" fill="#8643DC"/>
<path d="M119.837 88.0316C120.135 88.3114 120.605 88.296 120.884 87.9972C121.164 87.6985 121.149 87.2294 120.85 86.9496C120.551 86.6698 120.082 86.6851 119.802 86.9839C119.523 87.2826 119.538 87.7518 119.837 88.0316Z" fill="#8643DC"/>
<path d="M114.598 88.203C114.897 88.4828 115.366 88.4674 115.646 88.1686C115.926 87.8699 115.91 87.4008 115.612 87.121C115.313 86.8411 114.844 86.8565 114.564 87.1552C114.284 87.454 114.3 87.9231 114.598 88.203Z" fill="#8643DC"/>
<path d="M109.225 88.2479C109.523 88.5277 109.993 88.5123 110.272 88.2135C110.552 87.9147 110.537 87.4457 110.238 87.1659C109.939 86.886 109.47 86.9014 109.19 87.2002C108.911 87.4989 108.926 87.968 109.225 88.2479Z" fill="#8643DC"/>
<path d="M103.986 88.4195C104.285 88.6993 104.754 88.6839 105.034 88.3851C105.314 88.0864 105.298 87.6173 105 87.3375C104.701 87.0577 104.232 87.073 103.952 87.3718C103.672 87.6706 103.688 88.1397 103.986 88.4195Z" fill="#8643DC"/>
<path d="M98.6127 88.4644C98.9115 88.7442 99.3806 88.7288 99.6604 88.4301C99.9403 88.1313 99.9249 87.6622 99.6261 87.3824C99.3273 87.1026 98.8583 87.1179 98.5785 87.4167C98.2986 87.7155 98.3139 88.1846 98.6127 88.4644Z" fill="#8643DC"/>
<path d="M93.2477 88.771C93.5465 89.0508 94.0155 89.0355 94.2954 88.7367C94.5752 88.4379 94.5599 87.9689 94.2611 87.6891C93.9623 87.4092 93.4932 87.4246 93.2134 87.7234C92.9336 88.0221 92.9489 88.4912 93.2477 88.771Z" fill="#8643DC"/>
<path d="M87.8742 88.8159C88.173 89.0958 88.642 89.0804 88.9218 88.7816C89.2017 88.4829 89.1863 88.0138 88.8875 87.734C88.5888 87.4541 88.1197 87.4695 87.8399 87.7683C87.56 88.0671 87.5754 88.5361 87.8742 88.8159Z" fill="#8643DC"/>
<path d="M82.6358 88.9873C82.9346 89.2672 83.4036 89.2518 83.6834 88.953C83.9633 88.6542 83.9479 88.1852 83.6491 87.9054C83.3504 87.6255 82.8813 87.6409 82.6015 87.9397C82.3216 88.2384 82.337 88.7075 82.6358 88.9873Z" fill="#8643DC"/>
<path d="M77.2621 89.0322C77.5609 89.3121 78.03 89.2968 78.3098 88.998C78.5897 88.6992 78.5743 88.2301 78.2755 87.9503C77.9767 87.6704 77.5077 87.6858 77.2278 87.9846C76.948 88.2834 76.9633 88.7524 77.2621 89.0322Z" fill="#8643DC"/>
<path d="M72.0237 89.2036C72.3225 89.4835 72.7916 89.4681 73.0714 89.1694C73.3512 88.8706 73.3359 88.4015 73.0371 88.1217C72.7383 87.8418 72.2693 87.8572 71.9894 88.156C71.7096 88.4547 71.7249 88.9238 72.0237 89.2036Z" fill="#8643DC"/>
<path d="M66.6502 89.2486C66.9489 89.5284 67.418 89.5131 67.6978 89.2143C67.9777 88.9155 67.9623 88.4465 67.6635 88.1666C67.3647 87.8868 66.8957 87.9021 66.6158 88.2009C66.336 88.4997 66.3514 88.9688 66.6502 89.2486Z" fill="#8643DC"/>
<path d="M61.4118 89.42C61.7105 89.6998 62.1796 89.6845 62.4594 89.3857C62.7393 89.0869 62.7239 88.6179 62.4251 88.338C62.1263 88.0582 61.6573 88.0735 61.3774 88.3723C61.0976 88.6711 61.113 89.1401 61.4118 89.42Z" fill="#8643DC"/>
<path d="M56.0381 89.4649C56.3368 89.7447 56.8059 89.7293 57.0857 89.4306C57.3656 89.1318 57.3502 88.6627 57.0514 88.3829C56.7526 88.1031 56.2836 88.1184 56.0038 88.4172C55.7239 88.716 55.7393 89.185 56.0381 89.4649Z" fill="#8643DC"/>
<path d="M50.7998 89.6362C51.0986 89.9161 51.5676 89.9007 51.8474 89.6019C52.1273 89.3032 52.1119 88.8341 51.8131 88.5543C51.5144 88.2745 51.0453 88.2898 50.7655 88.5886C50.4856 88.8874 50.501 89.3564 50.7998 89.6362Z" fill="#8643DC"/>
<path d="M45.4261 89.6812C45.7249 89.961 46.1939 89.9456 46.4738 89.6469C46.7536 89.3481 46.7383 88.879 46.4395 88.5992C46.1407 88.3194 45.6717 88.3347 45.3918 88.6335C45.112 88.9323 45.1273 89.4013 45.4261 89.6812Z" fill="#8643DC"/>
<path d="M120.042 94.3177C120.341 94.5975 120.81 94.5822 121.09 94.2834C121.37 93.9846 121.355 93.5155 121.056 93.2357C120.757 92.9558 120.288 92.9712 120.008 93.27C119.728 93.5688 119.744 94.0378 120.042 94.3177Z" fill="#8643DC"/>
<path d="M114.804 94.4891C115.103 94.7689 115.572 94.7535 115.852 94.4548C116.132 94.156 116.116 93.6869 115.817 93.4071C115.519 93.1272 115.05 93.1426 114.77 93.4414C114.49 93.7402 114.505 94.2092 114.804 94.4891Z" fill="#8643DC"/>
<path d="M109.43 94.534C109.729 94.8138 110.198 94.7985 110.478 94.4997C110.758 94.2009 110.743 93.7318 110.444 93.452C110.145 93.1722 109.676 93.1876 109.396 93.4863C109.116 93.7851 109.132 94.2542 109.43 94.534Z" fill="#8643DC"/>
<path d="M104.065 94.8406C104.364 95.1205 104.833 95.1051 105.113 94.8063C105.393 94.5075 105.378 94.0385 105.079 93.7586C104.78 93.4788 104.311 93.4942 104.031 93.7929C103.751 94.0917 103.767 94.5608 104.065 94.8406Z" fill="#8643DC"/>
<path d="M98.6918 94.8856C98.9905 95.1654 99.4596 95.15 99.7395 94.8512C100.019 94.5524 100.004 94.0834 99.7052 93.8036C99.4064 93.5237 98.9373 93.5391 98.6575 93.8379C98.3777 94.1366 98.393 94.6057 98.6918 94.8856Z" fill="#8643DC"/>
<path d="M93.3182 94.9305C93.617 95.2103 94.0861 95.195 94.366 94.8962C94.6458 94.5974 94.6304 94.1283 94.3316 93.8485C94.0328 93.5686 93.5638 93.584 93.284 93.8828C93.0041 94.1816 93.0195 94.6506 93.3182 94.9305Z" fill="#8643DC"/>
<path d="M88.0798 95.1019C88.3786 95.3817 88.8477 95.3663 89.1276 95.0676C89.4074 94.7688 89.392 94.2997 89.0932 94.0199C88.7944 93.74 88.3254 93.7554 88.0456 94.0542C87.7657 94.3529 87.781 94.822 88.0798 95.1019Z" fill="#8643DC"/>
<path d="M82.7063 95.1468C83.0051 95.4267 83.4741 95.4113 83.754 95.1125C84.0338 94.8137 84.0184 94.3447 83.7197 94.0648C83.4209 93.785 82.9518 93.8003 82.672 94.0991C82.3921 94.3979 82.4075 94.867 82.7063 95.1468Z" fill="#8643DC"/>
<path d="M77.4679 95.3182C77.7666 95.598 78.2357 95.5826 78.5156 95.2839C78.7954 94.9851 78.78 94.516 78.4813 94.2362C78.1825 93.9564 77.7134 93.9717 77.4336 94.2705C77.1537 94.5693 77.1691 95.0384 77.4679 95.3182Z" fill="#8643DC"/>
<path d="M72.0942 95.3631C72.393 95.6429 72.8621 95.6275 73.1419 95.3288C73.4218 95.03 73.4064 94.5609 73.1076 94.2811C72.8089 94.0013 72.3398 94.0166 72.06 94.3154C71.7801 94.6142 71.7955 95.0833 72.0942 95.3631Z" fill="#8643DC"/>
<path d="M66.8559 95.5347C67.1547 95.8146 67.6238 95.7992 67.9036 95.5004C68.1834 95.2016 68.1681 94.7326 67.8693 94.4527C67.5705 94.1729 67.1015 94.1882 66.8216 94.487C66.5418 94.7858 66.5571 95.2549 66.8559 95.5347Z" fill="#8643DC"/>
<path d="M61.4822 95.5794C61.781 95.8592 62.25 95.8438 62.5299 95.5451C62.8097 95.2463 62.7943 94.7772 62.4956 94.4974C62.1968 94.2176 61.7277 94.2329 61.4479 94.5317C61.1681 94.8305 61.1834 95.2996 61.4822 95.5794Z" fill="#8643DC"/>
<path d="M56.2438 95.7508C56.5426 96.0306 57.0117 96.0152 57.2915 95.7164C57.5714 95.4177 57.556 94.9486 57.2572 94.6688C56.9584 94.389 56.4894 94.4043 56.2096 94.7031C55.9297 95.0019 55.9451 95.471 56.2438 95.7508Z" fill="#8643DC"/>
<path d="M50.8702 95.7957C51.169 96.0755 51.638 96.0601 51.9179 95.7614C52.1977 95.4626 52.1823 94.9935 51.8836 94.7137C51.5848 94.4339 51.1157 94.4492 50.8359 94.748C50.5561 95.0468 50.5714 95.5159 50.8702 95.7957Z" fill="#8643DC"/>
<path d="M45.6319 95.9673C45.9307 96.2472 46.3998 96.2318 46.6796 95.933C46.9594 95.6342 46.9441 95.1652 46.6453 94.8853C46.3465 94.6055 45.8775 94.6209 45.5976 94.9196C45.3178 95.2184 45.3331 95.6875 45.6319 95.9673Z" fill="#8643DC"/>
<path d="M120.248 100.604C120.547 100.883 121.016 100.868 121.296 100.569C121.576 100.27 121.56 99.8014 121.262 99.5216C120.963 99.2417 120.494 99.2571 120.214 99.5559C119.934 99.8547 119.949 100.324 120.248 100.604Z" fill="#8643DC"/>
<path d="M114.748 100.784C115.047 101.064 115.516 101.048 115.796 100.749C116.076 100.451 116.06 99.9816 115.761 99.7017C115.463 99.4219 114.994 99.4373 114.714 99.7361C114.434 100.035 114.449 100.504 114.748 100.784Z" fill="#8643DC"/>
<path d="M109.51 100.955C109.808 101.235 110.277 101.22 110.557 100.921C110.837 100.622 110.822 100.153 110.523 99.8734C110.224 99.5935 109.755 99.6089 109.475 99.9077C109.196 100.206 109.211 100.676 109.51 100.955Z" fill="#8643DC"/>
<path d="M104.136 101C104.435 101.28 104.904 101.265 105.184 100.966C105.464 100.667 105.448 100.198 105.149 99.9183C104.851 99.6385 104.382 99.6539 104.102 99.9526C103.822 100.251 103.837 100.72 104.136 101Z" fill="#8643DC"/>
<path d="M98.8977 101.172C99.1965 101.452 99.6656 101.436 99.9454 101.137C100.225 100.839 100.21 100.37 99.9111 100.09C99.6123 99.8099 99.1432 99.8252 98.8634 100.124C98.5836 100.423 98.5989 100.892 98.8977 101.172Z" fill="#8643DC"/>
<path d="M93.5241 101.217C93.8229 101.496 94.292 101.481 94.5718 101.182C94.8516 100.884 94.8363 100.414 94.5375 100.135C94.2388 99.8548 93.7696 99.8702 93.4898 100.169C93.21 100.468 93.2254 100.937 93.5241 101.217Z" fill="#8643DC"/>
<path d="M88.2857 101.388C88.5845 101.668 89.0536 101.653 89.3334 101.354C89.6132 101.055 89.5979 100.586 89.2991 100.306C89.0004 100.026 88.5312 100.042 88.2514 100.34C87.9716 100.639 87.987 101.108 88.2857 101.388Z" fill="#8643DC"/>
<path d="M82.9121 101.433C83.2109 101.713 83.6799 101.697 83.9598 101.399C84.2396 101.1 84.2243 100.631 83.9255 100.351C83.6267 100.071 83.1576 100.086 82.8778 100.385C82.598 100.684 82.6133 101.153 82.9121 101.433Z" fill="#8643DC"/>
<path d="M77.6737 101.604C77.9725 101.884 78.4415 101.869 78.7214 101.57C79.0012 101.271 78.9859 100.802 78.6871 100.522C78.3883 100.242 77.9192 100.258 77.6394 100.557C77.3596 100.855 77.3749 101.324 77.6737 101.604Z" fill="#8643DC"/>
<path d="M72.3001 101.649C72.5989 101.929 73.0679 101.914 73.3478 101.615C73.6276 101.316 73.6123 100.847 73.3135 100.567C73.0147 100.287 72.5456 100.303 72.2658 100.602C71.986 100.9 72.0013 101.369 72.3001 101.649Z" fill="#8643DC"/>
<path d="M66.9264 101.694C67.2252 101.974 67.6943 101.958 67.9741 101.66C68.2539 101.361 68.2386 100.892 67.9398 100.612C67.6411 100.332 67.172 100.347 66.8921 100.646C66.6123 100.945 66.6277 101.414 66.9264 101.694Z" fill="#8643DC"/>
<path d="M61.688 101.866C61.9868 102.145 62.4559 102.13 62.7357 101.831C63.0155 101.532 63.0002 101.063 62.7014 100.784C62.4027 100.504 61.9336 100.519 61.6537 100.818C61.3739 101.117 61.3893 101.586 61.688 101.866Z" fill="#8643DC"/>
<path d="M56.3145 101.91C56.6133 102.19 57.0824 102.175 57.3622 101.876C57.642 101.577 57.6267 101.108 57.3279 100.828C57.0291 100.549 56.56 100.564 56.2802 100.863C56.0004 101.162 56.0157 101.631 56.3145 101.91Z" fill="#8643DC"/>
<path d="M51.0762 102.082C51.3749 102.362 51.844 102.346 52.1239 102.048C52.4037 101.749 52.3883 101.28 52.0896 101C51.7908 100.72 51.3217 100.735 51.0419 101.034C50.762 101.333 50.7774 101.802 51.0762 102.082Z" fill="#8643DC"/>
<path d="M45.7026 102.127C46.0013 102.407 46.4704 102.391 46.7502 102.093C47.03 101.794 47.0147 101.325 46.7159 101.045C46.4172 100.765 45.948 100.78 45.6682 101.079C45.3884 101.378 45.4038 101.847 45.7026 102.127Z" fill="#8643DC"/>
<path d="M120.192 106.898C120.491 107.178 120.96 107.163 121.24 106.864C121.52 106.565 121.504 106.096 121.206 105.816C120.907 105.537 120.438 105.552 120.158 105.851C119.878 106.15 119.893 106.619 120.192 106.898Z" fill="#8643DC"/>
<path d="M114.954 107.07C115.253 107.35 115.722 107.334 116.002 107.036C116.281 106.737 116.266 106.268 115.967 105.988C115.668 105.708 115.199 105.723 114.92 106.022C114.64 106.321 114.655 106.79 114.954 107.07Z" fill="#8643DC"/>
<path d="M109.58 107.115C109.879 107.395 110.348 107.379 110.628 107.08C110.908 106.782 110.892 106.313 110.594 106.033C110.295 105.753 109.826 105.768 109.546 106.067C109.266 106.366 109.281 106.835 109.58 107.115Z" fill="#8643DC"/>
<path d="M104.342 107.286C104.641 107.566 105.11 107.551 105.39 107.252C105.669 106.953 105.654 106.484 105.355 106.204C105.057 105.924 104.587 105.94 104.308 106.238C104.028 106.537 104.043 107.006 104.342 107.286Z" fill="#8643DC"/>
<path d="M98.9682 107.331C99.267 107.611 99.7361 107.596 100.016 107.297C100.296 106.998 100.28 106.529 99.9816 106.249C99.6828 105.969 99.2138 105.985 98.9339 106.283C98.6541 106.582 98.6695 107.051 98.9682 107.331Z" fill="#8643DC"/>
<path d="M93.73 107.503C94.0287 107.783 94.4978 107.767 94.7776 107.468C95.0574 107.17 95.0421 106.701 94.7433 106.421C94.4445 106.141 93.9755 106.156 93.6957 106.455C93.4158 106.754 93.4312 107.223 93.73 107.503Z" fill="#8643DC"/>
<path d="M88.3562 107.547C88.655 107.827 89.1241 107.812 89.4039 107.513C89.6837 107.214 89.6684 106.745 89.3696 106.465C89.0708 106.186 88.6018 106.201 88.3219 106.5C88.0421 106.798 88.0575 107.268 88.3562 107.547Z" fill="#8643DC"/>
<path d="M83.1178 107.719C83.4166 107.999 83.8857 107.983 84.1655 107.685C84.4453 107.386 84.43 106.917 84.1312 106.637C83.8324 106.357 83.3634 106.373 83.0835 106.671C82.8037 106.97 82.8191 107.439 83.1178 107.719Z" fill="#8643DC"/>
<path d="M77.7443 107.764C78.0431 108.044 78.5121 108.028 78.792 107.729C79.0718 107.431 79.0564 106.962 78.7577 106.682C78.4589 106.402 77.9898 106.417 77.71 106.716C77.4302 107.015 77.4455 107.484 77.7443 107.764Z" fill="#8643DC"/>
<path d="M72.5059 107.935C72.8047 108.215 73.2737 108.2 73.5536 107.901C73.8334 107.602 73.818 107.133 73.5193 106.853C73.2205 106.574 72.7514 106.589 72.4716 106.888C72.1918 107.186 72.2071 107.655 72.5059 107.935Z" fill="#8643DC"/>
<path d="M67.1323 107.98C67.4311 108.26 67.9002 108.245 68.18 107.946C68.4598 107.647 68.4444 107.178 68.1457 106.898C67.8469 106.618 67.3778 106.634 67.098 106.932C66.8182 107.231 66.8335 107.7 67.1323 107.98Z" fill="#8643DC"/>
<path d="M61.8939 108.152C62.1927 108.431 62.6618 108.416 62.9416 108.117C63.2214 107.819 63.206 107.35 62.9073 107.07C62.6085 106.79 62.1394 106.805 61.8596 107.104C61.5798 107.403 61.5951 107.872 61.8939 108.152Z" fill="#8643DC"/>
<path d="M56.5203 108.197C56.8191 108.476 57.2882 108.461 57.568 108.162C57.8478 107.864 57.8325 107.394 57.5337 107.115C57.2349 106.835 56.7658 106.85 56.486 107.149C56.2062 107.448 56.2216 107.917 56.5203 108.197Z" fill="#8643DC"/>
<path d="M51.2819 108.368C51.5807 108.648 52.0498 108.632 52.3296 108.334C52.6094 108.035 52.5941 107.566 52.2953 107.286C51.9965 107.006 51.5274 107.021 51.2476 107.32C50.9678 107.619 50.9832 108.088 51.2819 108.368Z" fill="#8643DC"/>
<path d="M45.9084 108.413C46.2071 108.693 46.6762 108.677 46.956 108.379C47.2359 108.08 47.2205 107.611 46.9217 107.331C46.6229 107.051 46.1539 107.066 45.8741 107.365C45.5942 107.664 45.6096 108.133 45.9084 108.413Z" fill="#8643DC"/>
<path d="M120.398 113.184C120.697 113.464 121.166 113.449 121.446 113.15C121.726 112.851 121.71 112.382 121.411 112.102C121.113 111.823 120.644 111.838 120.364 112.137C120.084 112.435 120.099 112.905 120.398 113.184Z" fill="#8643DC"/>
<path d="M115.024 113.229C115.323 113.509 115.792 113.493 116.072 113.195C116.352 112.896 116.337 112.427 116.038 112.147C115.739 111.867 115.27 111.883 114.99 112.181C114.71 112.48 114.726 112.949 115.024 113.229Z" fill="#8643DC"/>
<path d="M109.786 113.401C110.085 113.68 110.554 113.665 110.834 113.366C111.114 113.068 111.098 112.599 110.799 112.319C110.501 112.039 110.032 112.054 109.752 112.353C109.472 112.652 109.487 113.121 109.786 113.401Z" fill="#8643DC"/>
<path d="M104.412 113.446C104.711 113.725 105.18 113.71 105.46 113.411C105.74 113.112 105.725 112.643 105.426 112.364C105.127 112.084 104.658 112.099 104.378 112.398C104.098 112.697 104.114 113.166 104.412 113.446Z" fill="#8643DC"/>
<path d="M99.174 113.617C99.4728 113.897 99.9419 113.881 100.222 113.583C100.502 113.284 100.486 112.815 100.187 112.535C99.8886 112.255 99.4196 112.271 99.1397 112.569C98.8599 112.868 98.8753 113.337 99.174 113.617Z" fill="#8643DC"/>
<path d="M93.8005 113.662C94.0993 113.942 94.5683 113.926 94.8482 113.628C95.128 113.329 95.1126 112.86 94.8139 112.58C94.5151 112.3 94.046 112.315 93.7662 112.614C93.4864 112.913 93.5017 113.382 93.8005 113.662Z" fill="#8643DC"/>
<path d="M88.5621 113.834C88.8609 114.113 89.3299 114.098 89.6098 113.799C89.8896 113.5 89.8742 113.031 89.5755 112.752C89.2767 112.472 88.8076 112.487 88.5278 112.786C88.248 113.085 88.2633 113.554 88.5621 113.834Z" fill="#8643DC"/>
<path d="M83.1884 113.878C83.4872 114.158 83.9563 114.143 84.2361 113.844C84.516 113.545 84.5006 113.076 84.2018 112.796C83.903 112.516 83.434 112.532 83.1541 112.831C82.8743 113.129 82.8897 113.598 83.1884 113.878Z" fill="#8643DC"/>
<path d="M77.9501 114.05C78.2489 114.33 78.718 114.314 78.9978 114.016C79.2776 113.717 79.2622 113.248 78.9635 112.968C78.6647 112.688 78.1956 112.703 77.9158 113.002C77.636 113.301 77.6513 113.77 77.9501 114.05Z" fill="#8643DC"/>
<path d="M72.5764 114.095C72.8752 114.374 73.3443 114.359 73.6241 114.06C73.9039 113.761 73.8886 113.292 73.5898 113.013C73.291 112.733 72.8219 112.748 72.5421 113.047C72.2623 113.346 72.2777 113.815 72.5764 114.095Z" fill="#8643DC"/>
<path d="M67.3381 114.266C67.6369 114.546 68.1059 114.53 68.3857 114.232C68.6656 113.933 68.6502 113.464 68.3514 113.184C68.0527 112.904 67.5836 112.919 67.3037 113.218C67.0239 113.517 67.0393 113.986 67.3381 114.266Z" fill="#8643DC"/>
<path d="M61.9645 114.311C62.2633 114.591 62.7323 114.575 63.0122 114.277C63.292 113.978 63.2766 113.509 62.9779 113.229C62.6791 112.949 62.21 112.964 61.9302 113.263C61.6504 113.562 61.6657 114.031 61.9645 114.311Z" fill="#8643DC"/>
<path d="M56.7261 114.482C57.0249 114.762 57.4939 114.747 57.7738 114.448C58.0536 114.149 58.0382 113.68 57.7395 113.4C57.4407 113.121 56.9716 113.136 56.6918 113.435C56.412 113.734 56.4273 114.203 56.7261 114.482Z" fill="#8643DC"/>
<path d="M51.2259 114.663C51.5246 114.942 51.9937 114.927 52.2735 114.628C52.5534 114.33 52.538 113.86 52.2392 113.581C51.9404 113.301 51.4714 113.316 51.1916 113.615C50.9117 113.914 50.9271 114.383 51.2259 114.663Z" fill="#8643DC"/>
<path d="M45.9875 114.834C46.2863 115.114 46.7553 115.098 47.0352 114.8C47.315 114.501 47.2997 114.032 47.0009 113.752C46.7021 113.472 46.2331 113.488 45.9532 113.786C45.6734 114.085 45.6887 114.554 45.9875 114.834Z" fill="#8643DC"/>
<path d="M120.604 119.47C120.903 119.75 121.372 119.735 121.652 119.436C121.931 119.137 121.916 118.668 121.617 118.389C121.319 118.109 120.85 118.124 120.57 118.423C120.29 118.722 120.305 119.191 120.604 119.47Z" fill="#8643DC"/>
<path d="M115.23 119.515C115.529 119.795 115.998 119.78 116.278 119.481C116.558 119.182 116.543 118.713 116.244 118.433C115.945 118.154 115.476 118.169 115.196 118.468C114.916 118.767 114.932 119.236 115.23 119.515Z" fill="#8643DC"/>
<path d="M109.992 119.687C110.291 119.967 110.76 119.951 111.04 119.652C111.319 119.354 111.304 118.885 111.005 118.605C110.707 118.325 110.238 118.34 109.958 118.639C109.678 118.938 109.693 119.407 109.992 119.687Z" fill="#8643DC"/>
<path d="M104.618 119.732C104.917 120.012 105.386 119.996 105.666 119.697C105.946 119.399 105.93 118.93 105.632 118.65C105.333 118.37 104.864 118.385 104.584 118.684C104.304 118.983 104.319 119.452 104.618 119.732Z" fill="#8643DC"/>
<path d="M99.3799 119.903C99.6787 120.183 100.148 120.168 100.428 119.869C100.707 119.57 100.692 119.101 100.393 118.821C100.094 118.541 99.6255 118.557 99.3456 118.855C99.0658 119.154 99.0811 119.623 99.3799 119.903Z" fill="#8643DC"/>
<path d="M94.0064 119.948C94.3052 120.228 94.7742 120.213 95.0541 119.914C95.3339 119.615 95.3185 119.146 95.0197 118.866C94.721 118.586 94.2519 118.602 93.9721 118.9C93.6922 119.199 93.7076 119.668 94.0064 119.948Z" fill="#8643DC"/>
<path d="M88.6328 119.993C88.9316 120.273 89.4006 120.257 89.6805 119.959C89.9603 119.66 89.945 119.191 89.6462 118.911C89.3474 118.631 88.8783 118.646 88.5985 118.945C88.3186 119.244 88.334 119.713 88.6328 119.993Z" fill="#8643DC"/>
<path d="M83.3944 120.164C83.6931 120.444 84.1622 120.429 84.442 120.13C84.7219 119.831 84.7065 119.362 84.4077 119.082C84.1089 118.803 83.6399 118.818 83.36 119.117C83.0802 119.415 83.0956 119.885 83.3944 120.164Z" fill="#8643DC"/>
<path d="M78.0208 120.209C78.3196 120.489 78.7886 120.474 79.0684 120.175C79.3483 119.876 79.3329 119.407 79.0341 119.127C78.7354 118.847 78.2663 118.863 77.9865 119.162C77.7066 119.46 77.722 119.929 78.0208 120.209Z" fill="#8643DC"/>
<path d="M72.7824 120.381C73.0812 120.66 73.5503 120.645 73.8301 120.346C74.1099 120.048 74.0946 119.579 73.7958 119.299C73.497 119.019 73.028 119.034 72.7481 119.333C72.4683 119.632 72.4837 120.101 72.7824 120.381Z" fill="#8643DC"/>
<path d="M67.4088 120.426C67.7076 120.705 68.1766 120.69 68.4564 120.391C68.7363 120.092 68.7209 119.623 68.4221 119.344C68.1234 119.064 67.6543 119.079 67.3745 119.378C67.0947 119.677 67.11 120.146 67.4088 120.426Z" fill="#8643DC"/>
<path d="M62.0437 120.732C62.3425 121.012 62.8116 120.997 63.0914 120.698C63.3712 120.399 63.3559 119.93 63.0571 119.65C62.7583 119.37 62.2893 119.386 62.0094 119.685C61.7296 119.983 61.745 120.452 62.0437 120.732Z" fill="#8643DC"/>
<path d="M56.67 120.777C56.9688 121.057 57.4378 121.042 57.7177 120.743C57.9975 120.444 57.9822 119.975 57.6834 119.695C57.3846 119.415 56.9156 119.431 56.6357 119.729C56.3559 120.028 56.3712 120.497 56.67 120.777Z" fill="#8643DC"/>
<path d="M51.4317 120.949C51.7305 121.228 52.1996 121.213 52.4794 120.914C52.7592 120.615 52.7439 120.146 52.4451 119.867C52.1463 119.587 51.6773 119.602 51.3974 119.901C51.1176 120.2 51.133 120.669 51.4317 120.949Z" fill="#8643DC"/>
<path d="M46.0581 120.993C46.3569 121.273 46.8259 121.258 47.1058 120.959C47.3856 120.66 47.3702 120.191 47.0714 119.911C46.7727 119.632 46.3036 119.647 46.0238 119.946C45.7439 120.245 45.7593 120.714 46.0581 120.993Z" fill="#8643DC"/>
<path d="M120.674 125.63C120.973 125.91 121.442 125.894 121.722 125.596C122.002 125.297 121.987 124.828 121.688 124.548C121.389 124.268 120.92 124.283 120.64 124.582C120.36 124.881 120.376 125.35 120.674 125.63Z" fill="#8643DC"/>
<path d="M115.436 125.801C115.735 126.081 116.204 126.066 116.484 125.767C116.764 125.468 116.748 124.999 116.449 124.719C116.151 124.439 115.682 124.455 115.402 124.754C115.122 125.052 115.137 125.521 115.436 125.801Z" fill="#8643DC"/>
<path d="M110.062 125.846C110.361 126.126 110.83 126.111 111.11 125.812C111.39 125.513 111.375 125.044 111.076 124.764C110.777 124.484 110.308 124.5 110.028 124.799C109.748 125.097 109.764 125.566 110.062 125.846Z" fill="#8643DC"/>
<path d="M104.824 126.018C105.123 126.297 105.592 126.282 105.872 125.983C106.152 125.685 106.136 125.215 105.837 124.936C105.539 124.656 105.07 124.671 104.79 124.97C104.51 125.269 104.525 125.738 104.824 126.018Z" fill="#8643DC"/>
<path d="M99.4504 126.063C99.7492 126.342 100.218 126.327 100.498 126.028C100.778 125.729 100.763 125.26 100.464 124.981C100.165 124.701 99.6959 124.716 99.4161 125.015C99.1363 125.314 99.1516 125.783 99.4504 126.063Z" fill="#8643DC"/>
<path d="M94.2121 126.234C94.5109 126.514 94.9799 126.498 95.2598 126.2C95.5396 125.901 95.5242 125.432 95.2255 125.152C94.9267 124.872 94.4576 124.887 94.1778 125.186C93.8979 125.485 93.9133 125.954 94.2121 126.234Z" fill="#8643DC"/>
<path d="M88.8385 126.279C89.1373 126.559 89.6064 126.543 89.8862 126.245C90.166 125.946 90.1507 125.477 89.8519 125.197C89.5531 124.917 89.0841 124.932 88.8042 125.231C88.5244 125.53 88.5397 125.999 88.8385 126.279Z" fill="#8643DC"/>
<path d="M83.6001 126.45C83.8989 126.73 84.368 126.715 84.6478 126.416C84.9276 126.117 84.9123 125.648 84.6135 125.368C84.3147 125.088 83.8457 125.104 83.5658 125.403C83.286 125.701 83.3013 126.17 83.6001 126.45Z" fill="#8643DC"/>
<path d="M78.2264 126.495C78.5252 126.775 78.9943 126.76 79.2741 126.461C79.554 126.162 79.5386 125.693 79.2398 125.413C78.9411 125.133 78.472 125.149 78.1922 125.447C77.9123 125.746 77.9277 126.215 78.2264 126.495Z" fill="#8643DC"/>
<path d="M72.8614 126.802C73.1602 127.082 73.6292 127.066 73.9091 126.767C74.1889 126.469 74.1736 126 73.8748 125.72C73.576 125.44 73.107 125.455 72.8271 125.754C72.5473 126.053 72.5626 126.522 72.8614 126.802Z" fill="#8643DC"/>
<path d="M67.4878 126.847C67.7866 127.127 68.2556 127.111 68.5355 126.812C68.8153 126.514 68.8 126.045 68.5012 125.765C68.2024 125.485 67.7334 125.5 67.4535 125.799C67.1737 126.098 67.189 126.567 67.4878 126.847Z" fill="#8643DC"/>
<path d="M62.1143 126.892C62.4131 127.171 62.8822 127.156 63.162 126.857C63.4418 126.559 63.4264 126.089 63.1276 125.81C62.8289 125.53 62.3598 125.545 62.08 125.844C61.8002 126.143 61.8155 126.612 62.1143 126.892Z" fill="#8643DC"/>
<path d="M56.8759 127.063C57.1747 127.343 57.6438 127.328 57.9236 127.029C58.2034 126.73 58.188 126.261 57.8892 125.981C57.5905 125.701 57.1214 125.717 56.8416 126.015C56.5618 126.314 56.5771 126.783 56.8759 127.063Z" fill="#8643DC"/>
<path d="M51.5022 127.108C51.801 127.388 52.27 127.372 52.5499 127.074C52.8297 126.775 52.8143 126.306 52.5156 126.026C52.2168 125.746 51.7477 125.761 51.4679 126.06C51.188 126.359 51.2034 126.828 51.5022 127.108Z" fill="#8643DC"/>
<path d="M46.2638 127.279C46.5626 127.559 47.0316 127.544 47.3115 127.245C47.5913 126.946 47.5759 126.477 47.2772 126.197C46.9784 125.918 46.5093 125.933 46.2295 126.232C45.9496 126.53 45.965 127 46.2638 127.279Z" fill="#8643DC"/>
</svg>
