<svg width="40" height="40" viewBox="0 0 40 40" fill="none" xmlns="http://www.w3.org/2000/svg">
<path d="M0 20C0 8.95431 8.95431 0 20 0H40V20C40 31.0457 31.0457 40 20 40C8.95431 40 0 31.0457 0 20Z" fill="#8643DC"/>
<path d="M16 10C16 4.47715 20.4772 0 26 0H40V13C40 18.5228 35.5228 23 30 23H16V10Z" fill="#FF59C1"/>
<path d="M18.36 29.36C16.94 29.36 15.63 29.1 14.43 28.58C13.25 28.04 12.28 27.28 11.52 26.3L14.22 23.06C14.8 23.82 15.41 24.4 16.05 24.8C16.69 25.18 17.38 25.37 18.12 25.37C20.1 25.37 21.09 24.21 21.09 21.89V11.9H13.71V8H25.92V21.62C25.92 24.22 25.28 26.16 24 27.44C22.72 28.72 20.84 29.36 18.36 29.36Z" fill="white"/>
</svg>
