<svg width="77" height="72" viewBox="0 0 77 72" fill="none" xmlns="http://www.w3.org/2000/svg">
<path d="M7.79462 43.1003C6.60552 42.3614 5.83867 40.943 5.18891 39.715C4.10294 37.8628 3.4004 36.7198 2.23435 36.7016L2.17671 34.8998C4.56159 34.8512 5.71187 36.9789 6.7129 38.7783C7.79886 40.6305 8.50141 41.7735 9.66746 41.7917C10.8863 41.725 11.5724 40.6208 12.426 38.6788C13.3646 36.7896 14.4615 34.6456 16.7614 34.5442C19.1463 34.4957 20.2966 36.6234 21.2976 38.4228C22.3836 40.275 23.0861 41.418 24.2521 41.4362C25.471 41.3694 26.1571 40.2653 27.0107 38.3233C27.9493 36.4341 29.0462 34.29 31.3461 34.1887C33.731 34.1402 34.8813 36.2678 35.8823 38.0673C36.9683 39.9195 37.6708 41.0625 38.8369 41.0807C40.0557 41.0139 40.7418 39.9098 41.5955 37.9678C42.534 36.0786 43.6309 33.9345 45.9308 33.8332C48.3157 33.7847 49.466 35.9123 50.467 37.7117C51.553 39.5639 52.2555 40.7069 53.4216 40.7251C54.6404 40.6584 55.3266 39.5543 56.1802 37.6123C57.1187 35.7231 58.2156 33.579 60.5155 33.4777C62.9004 33.4292 64.0507 35.5568 65.0517 37.3562C66.1377 39.2084 66.8402 40.3514 68.0063 40.3696C69.2251 40.3029 69.9113 39.1987 70.8498 37.3095C71.7883 35.4203 72.8852 33.2763 75.1852 33.175L75.2428 34.9768C74.024 35.0435 73.3378 36.1477 72.3993 38.0369C71.4607 39.9262 70.3639 42.0702 68.0639 42.1715C65.679 42.22 64.5287 40.0924 63.5277 38.2929C62.4417 36.4407 61.7392 35.2978 60.5732 35.2796C59.3544 35.3463 58.6682 36.4505 57.8146 38.3925C56.876 40.2817 55.7792 42.4257 53.4792 42.527C51.0943 42.5755 49.944 40.4479 48.943 38.6485C47.857 36.7962 47.1545 35.6533 45.9885 35.6351C44.7696 35.7018 44.0835 36.806 43.2299 38.748C42.2913 40.6372 41.1944 42.7812 38.8945 42.8825C36.5096 42.931 35.3593 40.8034 34.3583 39.004C33.2723 37.1518 32.5698 36.0088 31.4038 35.9906C30.1849 36.0573 29.4987 37.1615 28.6451 39.1035C27.7066 40.9927 26.6097 43.1367 24.3098 43.238C21.9249 43.2866 20.7746 41.1589 19.7736 39.3595C18.6876 37.5073 17.9851 36.3643 16.819 36.3461C15.6002 36.4128 14.9141 37.517 14.0605 39.459C13.1219 41.3482 12.025 43.4922 9.72509 43.5936C8.91941 43.5638 8.30424 43.417 7.79462 43.1003Z" fill="white"/>
</svg>
